<svg width="20" height="19" viewBox="0 0 20 19" fill="none" xmlns="http://www.w3.org/2000/svg">
<path d="M4.68948 0.564774C2.38869 0.94058 0.595726 2.73289 0.0918198 5.15705C-0.0331802 5.74348 -0.029274 6.86264 0.095726 7.47797C0.220726 8.09743 0.34182 8.45672 0.626976 9.06792C1.04494 9.95995 1.56057 10.6125 2.91213 11.9546C4.29104 13.3257 5.79885 14.7174 8.12698 16.7616C8.85744 17.4059 9.50588 17.9634 9.56838 17.9964C9.72854 18.0832 10.0957 18.1121 10.2754 18.0501C10.4317 17.9964 10.5957 17.8602 11.9746 16.6501C14.916 14.0608 17.3574 11.744 18.2598 10.6868C18.7988 10.0508 19.084 9.62544 19.3613 9.02663C19.6192 8.46911 19.752 8.06439 19.8731 7.46145C19.9863 6.89981 19.9981 5.77238 19.8926 5.24791C19.5293 3.4143 18.459 1.92346 16.9278 1.12229C15.4238 0.337637 13.709 0.29221 12.1778 1.00253C11.5059 1.31226 11.0332 1.66741 10.3653 2.35295L9.98244 2.74115L9.56448 2.31166C8.92385 1.65503 8.41604 1.28335 7.72854 0.973618C6.81448 0.556513 5.66994 0.403713 4.68948 0.564774ZM6.15823 2.42316C6.73635 2.53053 7.22073 2.73289 7.69729 3.07153C7.82619 3.16651 8.28323 3.60427 8.71291 4.05028C9.30276 4.66561 9.53323 4.87623 9.65041 4.92166C9.86916 4.99599 10.209 4.98773 10.3731 4.89688C10.4473 4.85971 10.8457 4.47564 11.252 4.05441C11.6621 3.62905 12.1113 3.19129 12.2559 3.08805C12.5996 2.82787 13.0332 2.62139 13.4942 2.49336C13.8145 2.40251 13.9512 2.38599 14.4356 2.38599C14.9238 2.38599 15.0567 2.40251 15.3926 2.49749C17.1934 3.00132 18.3692 4.77711 18.1817 6.70571C18.1074 7.48623 17.8145 8.27914 17.3731 8.90686C16.9785 9.46851 15.8262 10.662 14.2793 12.1033C12.791 13.4909 10.0489 15.944 9.98244 15.944C9.96291 15.944 9.50198 15.5516 8.95901 15.0684C5.54494 12.0496 3.21291 9.79476 2.60354 8.92751C1.90823 7.93637 1.62698 6.72636 1.82229 5.57829C2.18166 3.48863 4.14651 2.05974 6.15823 2.42316Z" fill="#9C9C9C"/>
</svg>
