<svg width="22" height="22" viewBox="0 0 22 22" fill="none" xmlns="http://www.w3.org/2000/svg">
<path d="M10.2051 0.949625C5.72344 1.31486 1.99805 4.61486 1.12149 9.00197C0.708992 11.0731 0.936726 13.1442 1.7961 15.1121C2.7543 17.3035 4.66641 19.2199 6.87501 20.1953C10.2738 21.6992 14.1195 21.261 17.0973 19.0266C17.8793 18.4379 18.8117 17.4496 19.3703 16.6203C21.6434 13.2215 21.6434 8.79572 19.3746 5.40548C18.9707 4.79962 18.6699 4.43869 18.0727 3.84572C17.0672 2.84884 16.0316 2.16564 14.7469 1.65002C13.7672 1.2547 12.7789 1.02697 11.6875 0.945328C11.043 0.898064 10.8324 0.898064 10.2051 0.949625ZM8.1211 6.92228C8.2629 6.98673 8.6711 7.36486 9.65509 8.34884L11 9.68517L12.3621 8.33165C13.8746 6.82775 13.9176 6.79337 14.3602 6.84494C14.9445 6.91369 15.3098 7.51525 15.1035 8.06525C15.0391 8.23712 14.807 8.49494 13.6684 9.63361L12.3149 11L13.6684 12.3621C14.807 13.5051 15.0391 13.7629 15.1035 13.9348C15.3098 14.4848 14.9445 15.0863 14.3602 15.1551C13.9176 15.2067 13.8746 15.1723 12.3621 13.6684L11 12.3149L9.65509 13.6512C8.76563 14.5449 8.2629 15.0133 8.15548 15.0606C7.80743 15.2024 7.33477 15.1121 7.10704 14.8586C6.87501 14.6051 6.80196 14.1754 6.93946 13.8445C6.98673 13.7371 7.45509 13.2344 8.34884 12.3406L9.68946 11L8.34884 9.65509C7.36485 8.67111 6.98673 8.26291 6.92227 8.12111C6.75899 7.75587 6.82345 7.39494 7.11134 7.10705C7.39493 6.82775 7.76016 6.759 8.1211 6.92228Z" fill="#C9C8C6"/>
</svg>
