<svg width="19" height="19" viewBox="0 0 19 19" fill="none" xmlns="http://www.w3.org/2000/svg">
<g id="heart-_1_ 1" clip-path="url(#clip0_52_1560)">
<g id="Group">
<path id="Vector" d="M4.73628 2.06797C2.66557 2.38789 1.0519 3.91367 0.598385 5.97734C0.485885 6.47656 0.4894 7.4293 0.6019 7.95312C0.7144 8.48047 0.823385 8.78633 1.08003 9.30664C1.4562 10.066 1.92026 10.6215 3.13667 11.7641C4.37768 12.9312 5.73471 14.116 7.83002 15.8562C8.48745 16.4047 9.07104 16.8793 9.12729 16.9074C9.27143 16.9812 9.6019 17.0059 9.76362 16.9531C9.90424 16.9074 10.0519 16.7914 11.2929 15.7613C13.9402 13.557 16.1374 11.5848 16.9496 10.6848C17.4347 10.1434 17.6914 9.78125 17.941 9.27148C18.173 8.79687 18.2925 8.45234 18.4015 7.93906C18.5035 7.46094 18.514 6.50117 18.4191 6.05469C18.0921 4.49375 17.1289 3.22461 15.7507 2.54258C14.3972 1.87461 12.8539 1.83594 11.4757 2.44063C10.871 2.7043 10.4456 3.00664 9.84448 3.59023L9.49995 3.9207L9.12377 3.55508C8.54721 2.99609 8.09018 2.67969 7.47143 2.41602C6.64878 2.06094 5.6187 1.93086 4.73628 2.06797ZM6.05815 3.65C6.57846 3.74141 7.0144 3.91367 7.44331 4.20195C7.55932 4.28281 7.97065 4.65547 8.35737 5.03516C8.88823 5.55898 9.09565 5.73828 9.20112 5.77695C9.39799 5.84023 9.70385 5.8332 9.85151 5.75586C9.91831 5.72422 10.2769 5.39726 10.6425 5.03867C11.0117 4.67656 11.416 4.30391 11.546 4.21601C11.8554 3.99453 12.2456 3.81875 12.6605 3.70976C12.9488 3.63242 13.0718 3.61836 13.5078 3.61836C13.9472 3.61836 14.0667 3.63242 14.3691 3.71328C15.9898 4.14219 17.048 5.6539 16.8792 7.2957C16.8124 7.96016 16.5488 8.63515 16.1515 9.16953C15.7964 9.64766 14.7593 10.6637 13.3671 11.8906C12.0277 13.0719 9.55971 15.1602 9.49995 15.1602C9.48237 15.1602 9.06752 14.8262 8.57885 14.4148C5.5062 11.8449 3.40737 9.92539 2.85893 9.18711C2.23315 8.34336 1.98003 7.31328 2.15581 6.33594C2.47924 4.55703 4.2476 3.34062 6.05815 3.65Z" fill="#5C5C5C"/>
</g>
</g>
<defs>
<clipPath id="clip0_52_1560">
<rect width="18" height="18" fill="white" transform="translate(0.5 0.5)"/>
</clipPath>
</defs>
</svg>
