<svg width="13" height="13" viewBox="0 0 13 13" fill="none" xmlns="http://www.w3.org/2000/svg">
<path d="M6.32424 3.01652C1.73928 5.11711 0.608419 5.64445 0.532247 5.72355C0.429708 5.83195 0.388693 5.9755 0.420919 6.13957C0.447286 6.28019 0.623068 6.4589 0.757833 6.48527C0.813497 6.49406 2.02346 6.59953 3.44729 6.71672C4.87112 6.83683 6.04299 6.93937 6.05178 6.94816C6.06057 6.95695 6.16311 8.12883 6.28322 9.55265C6.40041 10.9765 6.50588 12.1864 6.5176 12.2421C6.54104 12.3739 6.72561 12.5556 6.86623 12.582C7.02444 12.6112 7.16799 12.5702 7.27639 12.4677C7.35549 12.3915 7.88576 11.2607 9.97463 6.705C12.4063 1.40812 12.5762 1.02433 12.5762 0.871989C12.5791 0.737224 12.5645 0.690349 12.4942 0.599528C12.4004 0.476481 12.2656 0.406168 12.1192 0.406168C12.0547 0.406168 10.1797 1.24992 6.32424 3.01652ZM11.1582 1.8505C11.1582 1.85636 10.2881 3.7548 9.22756 6.07218C7.36135 10.1445 7.29397 10.2821 7.27932 10.1591C7.27053 10.0888 7.19436 9.22453 7.11526 8.24308C7.03323 7.25871 6.95998 6.41789 6.95119 6.37394C6.92776 6.25968 6.78127 6.09855 6.66701 6.0634C6.61428 6.04582 5.76174 5.96672 4.77151 5.88468C3.78127 5.80558 2.91115 5.72941 2.84377 5.72062L2.71486 5.70304L3.23928 5.46574C3.52639 5.3339 5.41604 4.46672 7.43752 3.538C10.9209 1.9384 11.1582 1.83 11.1582 1.8505Z" fill="#626060"/>
</svg>
