<svg width="17" height="17" viewBox="0 0 17 17" fill="none" xmlns="http://www.w3.org/2000/svg">
<path d="M1.00017 6.86029C2.91657 11.0342 6.32657 14.3527 10.5661 16.1517L11.2457 16.4545C12.8005 17.1472 14.6283 16.6209 15.5766 15.2074L16.4647 13.8837C16.7534 13.4533 16.6655 12.8737 16.2622 12.5483L13.2503 10.1185C12.8079 9.76159 12.1574 9.84472 11.819 10.3014L10.8873 11.5586C8.49646 10.3793 6.55541 8.43825 5.37607 6.04744L6.63332 5.11572C7.08998 4.77729 7.17311 4.12678 6.81622 3.6844L4.38635 0.672454C4.061 0.269172 3.4815 0.181205 3.05113 0.469774L1.71829 1.36347C0.295947 2.31718 -0.227434 4.16003 0.481298 5.71898L0.999386 6.85859L1.00017 6.86029Z" fill="#B0AFAF"/>
</svg>
