<svg width="17" height="21" viewBox="0 0 17 21" fill="none" xmlns="http://www.w3.org/2000/svg">
<path d="M5.75 1C5.75 0.585786 6.08579 0.25 6.5 0.25H10.5C10.9142 0.25 11.25 0.585786 11.25 1V1.75H15.5C15.9142 1.75 16.25 2.08579 16.25 2.5C16.25 2.91421 15.9142 3.25 15.5 3.25H1.5C1.08579 3.25 0.75 2.91421 0.75 2.5C0.75 2.08579 1.08579 1.75 1.5 1.75H5.75V1Z" fill="#9C9C9C"/>
<path fill-rule="evenodd" clip-rule="evenodd" d="M2.7399 5.94478C2.76803 5.69157 2.98206 5.5 3.23684 5.5H13.7632C14.0179 5.5 14.232 5.69157 14.2601 5.94478L14.4602 7.74613C14.821 10.9931 14.821 14.2701 14.4602 17.517L14.4405 17.6944C14.3091 18.8769 13.3926 19.8199 12.2143 19.9849C9.7501 20.3299 7.24989 20.3299 4.78574 19.9849C3.60737 19.8199 2.69085 18.8769 2.55945 17.6944L2.53975 17.517C2.17897 14.2701 2.17897 10.9931 2.53975 7.74613L2.7399 5.94478ZM11.0303 10.4697C11.3232 10.7626 11.3232 11.2374 11.0303 11.5303L9.56066 13L11.0303 14.4697C11.3232 14.7626 11.3232 15.2374 11.0303 15.5303C10.7374 15.8232 10.2626 15.8232 9.96967 15.5303L8.5 14.0607L7.03034 15.5303C6.73745 15.8232 6.26257 15.8232 5.96968 15.5303C5.67678 15.2374 5.67678 14.7626 5.96968 14.4697L7.43934 13L5.96967 11.5303C5.67678 11.2374 5.67678 10.7626 5.96967 10.4697C6.26256 10.1768 6.73744 10.1768 7.03033 10.4697L8.5 11.9393L9.96968 10.4697C10.2626 10.1768 10.7374 10.1768 11.0303 10.4697Z" fill="#9C9C9C"/>
</svg>
