<svg width="16" height="20" viewBox="0 0 16 20" fill="none" xmlns="http://www.w3.org/2000/svg">
<path fill-rule="evenodd" clip-rule="evenodd" d="M8.99994 1C8.99994 0.447715 8.55222 0 7.99994 0C7.44765 0 6.99994 0.447715 6.99994 1V1.75H6.44252C4.21745 1.75 2.37585 3.48001 2.23695 5.70074L2.01595 9.2342C1.93169 10.5814 1.4794 11.8797 0.708343 12.9876C0.0116609 13.9886 0.631881 15.3712 1.84281 15.5165L5.24994 15.9254V17C5.24994 18.5188 6.48116 19.75 7.99994 19.75C9.51872 19.75 10.7499 18.5188 10.7499 17V15.9254L14.1571 15.5165C15.368 15.3712 15.9882 13.9886 15.2915 12.9876C14.5205 11.8797 14.0682 10.5814 13.9839 9.2342L13.7629 5.70074C13.624 3.48001 11.7824 1.75 9.55735 1.75H8.99994V1ZM6.74994 17C6.74994 17.6904 7.30958 18.25 7.99994 18.25C8.6903 18.25 9.24994 17.6904 9.24994 17V16.25H6.74994V17Z" fill="#9C9C9C"/>
</svg>
