<svg width="10" height="10" viewBox="0 0 10 10" fill="none" xmlns="http://www.w3.org/2000/svg">
<path d="M4.85352 0.808784C4.82227 0.822455 4.78125 0.851752 4.76367 0.871284C4.7461 0.892768 4.46094 1.45722 4.13086 2.1291C3.80078 2.80097 3.52539 3.35566 3.51758 3.36347C3.51172 3.36933 2.89063 3.46503 2.13867 3.57441C1.16406 3.71503 0.753908 3.78144 0.712892 3.80683C0.582033 3.883 0.523439 4.08027 0.593752 4.21503C0.609377 4.24433 1.01563 4.65253 1.49805 5.12128C1.97852 5.59003 2.42383 6.02558 2.48633 6.08808L2.59766 6.20332L2.36328 7.5705C2.11719 9.008 2.11914 8.99433 2.19727 9.11347C2.2461 9.18769 2.375 9.24433 2.47266 9.23261C2.53125 9.22675 2.89258 9.04707 3.76758 8.58613C4.43555 8.23652 4.99024 7.94941 5.00195 7.94941C5.01172 7.94941 5.56445 8.23457 6.22852 8.58417C6.89258 8.93378 7.46289 9.2248 7.4961 9.23066C7.59375 9.25019 7.68945 9.22285 7.76172 9.15449C7.89258 9.03144 7.89649 9.08808 7.63672 7.56855L7.40235 6.20332L7.49414 6.10761C7.54688 6.05488 7.99024 5.61933 8.48438 5.14082C8.97656 4.66035 9.39063 4.24433 9.40625 4.21503C9.47656 4.08027 9.41797 3.883 9.28711 3.80488C9.24414 3.78144 8.84961 3.71699 7.86133 3.57246C7.10938 3.46503 6.48828 3.36933 6.48242 3.36152C6.47461 3.35566 6.19922 2.80097 5.86914 2.1291C5.53906 1.45722 5.25391 0.892768 5.23633 0.871284C5.16406 0.787299 4.97461 0.756049 4.85352 0.808784Z" fill="black"/>
</svg>
