<svg width="16" height="14" viewBox="0 0 16 14" fill="none" xmlns="http://www.w3.org/2000/svg">
<path fill-rule="evenodd" clip-rule="evenodd" d="M6.86498 1.08566C7.3708 0.213959 8.62962 0.213961 9.13543 1.08566L10.6844 3.75518C10.8272 4.00124 11.074 4.16916 11.3553 4.21165L13.9275 4.60015C15.0488 4.7695 15.4421 6.18518 14.5689 6.90863L12.6947 8.46136C12.4317 8.6793 12.308 9.02308 12.3719 9.35866L12.8969 12.1156C13.1025 13.1956 11.9688 14.0347 10.996 13.5225L8.43699 12.1751C8.1636 12.0311 7.83682 12.0311 7.56342 12.1751L5.0044 13.5225C4.03164 14.0347 2.89792 13.1956 3.10357 12.1156L3.62855 9.35865C3.69246 9.02308 3.56877 8.6793 3.30571 8.46136L1.43153 6.90863C0.55832 6.18518 0.951623 4.7695 2.07287 4.60015L4.6451 4.21165C4.9264 4.16916 5.17319 4.00124 5.31597 3.75518L6.86498 1.08566ZM8.16238 1.65028C8.09012 1.52575 7.91029 1.52575 7.83803 1.65028L6.28902 4.3198C5.9749 4.86114 5.43197 5.23056 4.81312 5.32403L2.24088 5.71254C2.0807 5.73673 2.02452 5.93897 2.14926 6.04232L4.02344 7.59505C4.60216 8.07452 4.87428 8.83082 4.7337 9.5691L4.20871 12.3261C4.17933 12.4804 4.34129 12.6002 4.48026 12.5271L7.03928 11.1796C7.64076 10.8629 8.35966 10.8629 8.96113 11.1796L11.5202 12.5271C11.6591 12.6002 11.8211 12.4804 11.7917 12.3261L11.2667 9.5691C11.1261 8.83082 11.3983 8.07452 11.977 7.59505L13.8512 6.04232C13.9759 5.93897 13.9197 5.73673 13.7595 5.71254L11.1873 5.32403C10.5684 5.23056 10.0255 4.86114 9.7114 4.3198L8.16238 1.65028Z" fill="#353535"/>
</svg>
