<svg width="20" height="18" viewBox="0 0 20 18" fill="none" xmlns="http://www.w3.org/2000/svg">
<path fill-rule="evenodd" clip-rule="evenodd" d="M19.5101 7.17142L19.5127 10.7943C19.4872 11.1394 19.4543 11.4842 19.4141 11.8283C19.3468 12.4037 18.879 12.8678 18.2916 12.9335C16.4519 13.1391 14.5481 13.1391 12.7083 12.9335C12.1209 12.8678 11.6531 12.4037 11.5858 11.8283C11.3661 9.94925 11.3661 8.05102 11.5858 6.17201C11.6531 5.59661 12.1209 5.13246 12.7083 5.06681C14.5481 4.86119 16.4519 4.86119 18.2916 5.06681C18.879 5.13246 19.3468 5.59661 19.4141 6.17201C19.453 6.50462 19.485 6.83782 19.5101 7.17142ZM15.5 7.50013C14.6715 7.50013 14 8.17171 14 9.00013C14 9.82856 14.6715 10.5001 15.5 10.5001C16.3284 10.5001 17 9.82856 17 9.00013C17 8.17171 16.3284 7.50013 15.5 7.50013Z" fill="#9C9C9C"/>
<path d="M18.9036 3.03985C19.059 3.30911 18.7672 3.61063 18.4582 3.57609C16.5077 3.3581 14.4922 3.3581 12.5417 3.57609C11.2723 3.71796 10.2457 4.7175 10.096 5.99776C9.86269 7.99255 9.86269 10.0077 10.096 12.0025C10.2457 13.2828 11.2723 14.2823 12.5417 14.4242C14.4922 14.6422 16.5077 14.6422 18.4582 14.4242C18.7693 14.3894 19.0635 14.693 18.9065 14.9638C18.1279 16.3066 16.7398 17.2438 15.1268 17.4135L14.4749 17.4821C11.1641 17.8305 7.82462 17.8076 4.51887 17.4136L4.08692 17.3622C2.3048 17.1498 0.892749 15.7575 0.655378 13.9785C0.214483 10.6742 0.214483 7.32605 0.655378 4.02179C0.892749 2.24282 2.3048 0.850464 4.08692 0.6381L4.51886 0.586628C7.82461 0.192702 11.1641 0.169727 14.4749 0.518131L15.1268 0.586727C16.7412 0.756609 18.1271 1.69522 18.9036 3.03985Z" fill="#9C9C9C"/>
</svg>
